<svg id="Capa_1" enable-background="new 0 0 499.999 499.999" height="512" viewBox="0 0 499.999 499.999" width="512" xmlns="http://www.w3.org/2000/svg"><path id="path-1_35_" d="m203.125 343.749h-62.5c-8.636 0-15.625-6.989-15.625-15.625v-156.25c0-8.636 6.989-15.625 15.625-15.625h62.5c8.636 0 15.625 6.989 15.625 15.625v156.25c0 8.637-6.989 15.625-15.625 15.625zm-46.875-31.25h31.25v-125h-31.25z" transform="translate(4 5)"/><path id="path-1_34_" d="m359.374 343.749h-62.5c-8.636 0-15.625-6.989-15.625-15.625v-156.25c0-8.636 6.989-15.625 15.625-15.625h62.5c8.636 0 15.625 6.989 15.625 15.625v156.25c0 8.637-6.988 15.625-15.625 15.625zm-46.875-31.25h31.25v-125h-31.25z" transform="translate(9 5)"/><path d="m250 499.999c-137.848 0-250-112.152-250-250s112.152-249.999 250-249.999 250 112.152 250 250-112.153 249.999-250 249.999zm0-468.749c-120.62 0-218.75 98.129-218.75 218.75s98.129 218.75 218.75 218.75 218.749-98.13 218.749-218.75-98.129-218.75-218.749-218.75z"/></svg>