<?xml version="1.0" encoding="UTF-8"?>
<svg id="svg8" width="256" height="256" version="1.1" viewBox="0 0 67.733336 67.733331" xmlns="http://www.w3.org/2000/svg">
  <g id="layer1" transform="translate(-119.19 -41.605)">
    <g id="g4557" transform="translate(4.3e-7 -6.8858)" fill-rule="evenodd">
      <g id="g4491" transform="matrix(1.4598 0 0 1.4592 119.19 -1112.3)" fill="none" stroke-width="0">
        <path id="path4485" d="m0 800.2h46.4v36.98h-46.4v-36.98"/>
        <path id="path4487" d="m0 800.2 46.4 36.98"/>
        <path id="path4489" d="M 46.4,800.2 0,837.18"/>
      </g>
      <path id="path4493" d="m120.52 64.774h65.077c0.72989 0 1.3284 0.58368 1.3284 1.3133v32.278c0 0.72961-0.59851 1.3133-1.3284 1.3133h-65.077c-0.72989 0-1.3284-0.58368-1.3284-1.3133v-32.278c0-0.72961 0.59851-1.3133 1.3284-1.3133z" fill="#5f89cc"/>
      <path id="path4495" d="m125.28 60.148h55.559c0.72985 0 1.3284 0.58368 1.3284 1.3133v41.792c0 0.72961-0.59851 1.3278-1.3284 1.3278h-55.559c-0.72989 0-1.3284-0.59824-1.3284-1.3278v-41.792c0-0.72961 0.59847-1.3133 1.3284-1.3133z" fill="#173979"/>
      <path id="path4497" d="m129.91 55.376h46.304c0.72989 0 1.3284 0.59827 1.3284 1.3279v51.306c0 0.72961-0.59851 1.3279-1.3284 1.3279h-46.304c-0.72989 0-1.3284-0.59828-1.3284-1.3279v-51.306c0-0.72961 0.59851-1.3279 1.3284-1.3279z" fill="#172446"/>
      <path id="path4499" d="m160.11 59.593-5.8099 13.498c-0.16055 0.3793-0.23338 0.87554-0.33559 1.2841 0.0877 0.27714 0.5693 1.2549 0.87584 1.3279l13.561 3.6772c0.1022 0.11664 0.1022 0.11664 0.0583 0.29203-0.14607 0.55448-0.71529 0.80258-25.648 24.588l9.182-17.934c-0.14607-0.46691-0.46713-1.2257-1.0073-1.3717l-12.408-3.3562 21.269-22.078z" fill="#d2a315"/>
    </g>
  </g>
</svg>
